<?xml version="1.0" encoding="utf-8"?>
<!-- Generator: Adobe Illustrator 19.2.1, SVG Export Plug-In . SVG Version: 6.00 Build 0)  -->
<svg version="1.1" id="Layer_1" xmlns="http://www.w3.org/2000/svg" xmlns:xlink="http://www.w3.org/1999/xlink" x="0px" y="0px"
	 viewBox="0 0 150 150" style="enable-background:new 0 0 150 150;" xml:space="preserve">
<style type="text/css">
	.st0{fill:#FFFFFF;}
</style>
<g>
	<circle class="st0" cx="-161.5" cy="75" r="65.5"/>
	<g id="WOMAN_business_3_">
		<path d="M-125.9,92.4c-2.8-5.6-8.9-10.1-17.2-12.5c-0.9-0.3-2-0.1-2.8,0.5c-0.8,0.6-1.3,1.5-1.4,2.4c0,0.2-1.1,15.9-9.4,21.4
			c-0.1,0-0.1,0.1-0.2,0.2l-1.4-3.9l3.4-6.6l-3.1-3.6c-1.1,0.2-2.3,0.3-3.5,0.3c-1.2,0-2.3-0.2-3.5-0.3l-3.1,3.6l3.4,6.6l-1.4,3.9
			c-0.1-0.1-0.1-0.1-0.2-0.2c-8.3-5.5-9.5-21.3-9.5-21.4c-0.1-0.9-0.6-1.9-1.4-2.4c-0.8-0.6-1.9-0.7-2.8-0.5
			c-8.3,2.5-14.4,6.9-17.2,12.5c-3.5,7-3.6,11.4-3.6,12c0,7.5,21.3,9,39.2,9c17.9,0,39.3-1.5,39.3-9
			C-122.3,103.8-122.4,99.4-125.9,92.4z"/>
		<path d="M-176.5,77.2c3.2,5.1,8.8,8.4,15,8.4c6.2,0,11.7-3.3,15-8.4h8.5c1.2-5.3,3.1-18.4-3.7-29c-4.6-7.1-9.8-11.7-19.8-11.7
			c-10,0-15.1,4.6-19.7,11.7c-6.8,10.6-4.9,23.7-3.7,29H-176.5z M-181.7,62c0.2-0.3,0.4-0.6,0.8-0.8c0.3,2.1,0.9,5.1,1.4,7.3
			c-0.8-0.8-1.5-1.8-2-3.1C-182.1,64-182.1,62.8-181.7,62z M-142.2,61.2c0.4,0.2,0.7,0.4,0.9,0.8c0.4,0.8,0.4,2.1-0.1,3.4
			c-0.6,1.5-1.4,2.5-2.2,3.3C-143.1,66.5-142.5,63.4-142.2,61.2z M-161.6,79.1c-5.2,0-9.8-3.8-11-9.2c-0.7-3.2-1.7-8.4-2-10.4
			c7.6-0.1,19.6-0.9,19.6-6.5c0,0,2.2,4.3,6.5,5.9c0,0,0,0,0,0.1l0,0c-0.2,1.7-1.3,7.5-2,10.9C-151.8,75.3-156.3,79.1-161.6,79.1z"
			/>
	</g>
</g>
<g>
	<circle class="st0" cx="75" cy="75" r="65.5"/>
	<g>
		<g id="MAN_8_">
			<path d="M109.7,91.2c-2.8-5.7-8.9-10.1-17.2-12.6l-1.9-0.5l-1.4,1.5c-4,4.2-9.3,6.5-15,6.5c-5.7,0-11.1-2.3-15.1-6.5l-1.4-1.5
				l-1.9,0.6c-8.3,2.5-14.4,6.9-17.2,12.5c-3.5,7-3.6,11.5-3.6,11.9c0,7.5,21.3,9.1,39.2,9.1c17.9,0,39.2-1.6,39.2-9.1
				C113.3,102.7,113.3,98.2,109.7,91.2z M96.3,104.4c0.1-1.8,0.6-2.9,0.6-2.9c0.4-0.8,0.1-1.8-0.7-2.2c-0.8-0.4-1.8,0-2.2,0.7
				c-0.1,0.2-0.8,1.8-0.9,4.8c-5,0.5-11.3,0.9-18.9,0.9c-7.5,0-13.8-0.3-18.9-0.9c-0.1-2.9-0.8-4.6-0.9-4.8
				c-0.4-0.8-1.4-1.1-2.2-0.7c-0.8,0.4-1.1,1.4-0.7,2.2c0,0,0.4,1.1,0.6,2.9c-5.4-0.7-8.9-1.6-10.4-2.3c0.2-1.5,0.9-4.2,2.8-8.1
				c1.1-2.1,3.9-5.9,11.4-8.6c5.1,4.6,11.5,7.2,18.3,7.2c6.8,0,13.3-2.5,18.3-7.2c7.5,2.6,10.4,6.5,11.5,8.6
				c1.9,3.8,2.6,6.7,2.8,8.1C105.2,102.9,101.7,103.7,96.3,104.4z"/>
			<path d="M57.2,70.5c2.6,7.4,9.2,12.4,16.8,12.4c7.6,0,14.2-4.9,16.8-12.3c2.3-0.9,4.9-2.8,6.4-6.8c0.9-2.3,0.9-4.4,0-6.1
				c-0.7-1.3-1.9-2.3-3.5-2.6l0,0.1c0.1-2.9,0.1-4.4-0.2-6.8C92.4,40,84,33.8,74.1,33.8c-10,0-18.3,6.2-19.5,14.4
				c-0.3,2.4-0.3,3.9-0.2,6.8c-1.5,0.4-2.7,1.3-3.4,2.6c-0.9,1.7-0.9,3.9,0,6.1C52.5,67.6,55,69.5,57.2,70.5z M94.4,59.1
				c0.4,0.8,0.3,2.1-0.2,3.4c-0.6,1.5-1.4,2.5-2.2,3.3c0.5-2.2,1.1-5.3,1.4-7.5C93.8,58.5,94.2,58.8,94.4,59.1z M61.1,49.1
				c0.7-5,6.3-8.8,13-8.8c6.7,0,12.3,3.8,12.9,8.8c0.3,2.3,0.3,3.5,0.1,7c-0.1,1.7-1.3,7.5-2,10.9c-1.3,5.5-5.8,9.3-11,9.3
				c-5.3,0-9.8-3.8-11.1-9.2c-0.8-3.5-1.9-9.3-2-10.8C60.8,52.6,60.8,51.4,61.1,49.1z M53.9,59.1c0.2-0.3,0.5-0.6,0.8-0.7
				c0.3,2.1,0.9,5.2,1.4,7.4c-0.8-0.8-1.5-1.8-2-3.3C53.5,61.2,53.5,59.9,53.9,59.1z"/>
		</g>
		<path d="M81.2,53.1c-2.4,0-4.2,0.4-5.4,1.4c-0.5-0.3-1.1-0.5-1.7-0.5c-0.7,0-1.3,0.2-1.8,0.5c-1.2-0.9-3-1.4-5.4-1.4
			c-4.7,0-7.1,1.8-7.1,5.3c0,3.9,3.2,7.1,7.1,7.1c3.6,0,6.6-2.7,7-6.2c0.1,0,0.1,0,0.1,0c0,0,0,0,0.1,0c0.5,3.5,3.4,6.2,7,6.2
			c3.9,0,7.1-3.2,7.1-7.1C88.3,54.9,86,53.1,81.2,53.1z M67,62c-2,0-3.6-1.6-3.6-3.6c0-0.8,0-1.8,3.6-1.8c3.6,0,3.6,1,3.6,1.8
			C70.6,60.4,69,62,67,62z M81.2,62c-2,0-3.6-1.6-3.6-3.6c0-0.8,0-1.8,3.6-1.8c3.6,0,3.6,1,3.6,1.8C84.8,60.4,83.2,62,81.2,62z"/>
	</g>
</g>
<g>
	<circle class="st0" cx="411.9" cy="75.8" r="65.5"/>
	<g>
		<path d="M438.9,84.3h-53.9c-3,0-5.4-2.4-5.4-5.4V46.2c0-3,2.4-5.4,5.4-5.4h53.9c3,0,5.4,2.4,5.4,5.4v32.6
			C444.3,81.8,441.9,84.3,438.9,84.3z M388.2,75.6h47.4V49.5h-47.4V75.6z"/>
		<g>
			<path d="M446.7,110.6h-34.8v-8.4h34.8c0.1,0,0.1,0,0.2,0l-8.3-13.8c-0.4-0.6-1.1-1-1.8-1h-24.8v-8.4h24.8c3.7,0,7.1,1.9,9,5.1
				l9.4,15.5c1.3,2.2,1.4,4.7,0.2,6.8C453.8,109,450.6,110.6,446.7,110.6z"/>
			<path d="M411.9,110.6h-34.8c-3.9,0-7.1-1.6-8.6-4.2c-1.2-2.1-1.1-4.7,0.2-6.8l9.4-15.5c1.9-3.1,5.4-5.1,9-5.1h24.8v8.4h-24.8
				c-0.7,0-1.4,0.4-1.8,1l-8.3,13.8c0.1,0,0.1,0,0.2,0h34.8V110.6z"/>
		</g>
		<g>
			<path d="M411.9,98.9c11,0,21.7,0,22.9,0c2.6,0,4.1-1.6,3.2-3.2c-0.9-1.6-6.2-10.5-6.2-10.5c-0.8-1.3-2.1-2.1-3.6-2.1h-16.3"/>
			<path d="M411.9,98.9c-11,0-21.7,0-22.9,0c-2.6,0-4.1-1.6-3.2-3.2c0.9-1.6,6.2-10.5,6.2-10.5c0.8-1.3,2.1-2.1,3.6-2.1h16.3"/>
		</g>
	</g>
</g>
<g>
	<circle class="st0" cx="568.4" cy="76.8" r="65.5"/>
	<g id="rocket_1_">
		<g>
			<path d="M571.7,62.8c0,1.8-1.5,3.3-3.3,3.3c-1.8,0-3.3-1.5-3.3-3.3c0-1.8,1.5-3.3,3.3-3.3C570.2,59.5,571.7,61,571.7,62.8z"/>
		</g>
		<path d="M568.4,71c-4.5,0-8.2-3.7-8.2-8.2c0-4.5,3.7-8.2,8.2-8.2c4.5,0,8.2,3.7,8.2,8.2C576.6,67.3,572.9,71,568.4,71z
			 M568.4,57.9c-2.7,0-4.9,2.2-4.9,4.9c0,2.7,2.2,4.9,4.9,4.9c2.7,0,4.9-2.2,4.9-4.9C573.3,60.1,571.1,57.9,568.4,57.9z"/>
		<path d="M572.3,80.4c0-2.2-1.7-3.9-3.9-3.9c-2.2,0-3.9,1.8-3.9,3.9v7.8c0,1,0.4,1.8,1,2.5v18.1c0,1.2,0.8,2.9,2.9,2.9
			c2.2,0,2.9-1.8,2.9-2.9V90.8c0.6-0.7,1-1.6,1-2.5V80.4z"/>
		<path d="M548.2,75.9v-0.8l-7.3,5.1c0-2.2-1.8-3.9-3.9-3.9c-2.2,0-3.9,1.8-3.9,3.9v5.5l-3.5,2.5c-0.3,0.2-0.4,0.5-0.4,0.8v19.9
			c0,1.2,0.8,3,3,3c2.2,0,3-1.8,3-3c0-8.4,9.8-14.9,14.6-17.6C548.7,86.6,548.2,80.7,548.2,75.9z"/>
		<path d="M607.2,88l-3.6-2.5v-5.4c0-2.2-1.8-3.9-3.9-3.9c-2.1,0-3.9,1.7-3.9,3.8l-7.2-5v0.8c-0.1,4.8-0.5,10.8-1.6,15.4
			c5,2.8,14.6,9.2,14.6,17.6c0,1.2,0.8,3,3,3c2.2,0,3-1.8,3-3v-20C607.6,88.5,607.4,88.2,607.2,88z"/>
		<path d="M586.2,52.4c-0.1-0.1-0.1-0.3-0.2-0.4l-0.4-1.1c-4.4-10.5-11.3-17.6-17.2-17.6s-12.8,7.1-17.2,17.6l-0.4,1.1
			c-0.1,0.1-0.1,0.3-0.2,0.4c-2.5,6.6-5.1,17.3-5.1,24.5l0.1,0.9c0,2.5,0.2,11.3,2.2,17.6l1.2,3.2c2.5,6.1,5.2,9,14.8,10h9.4
			c0.1,0,0.2,0,0.3,0c9.3-0.9,12-3.8,14.5-9.9l1.3-3.4c1.9-6.1,2.1-14.9,2.1-17.4l0-0.9C591.3,69.7,588.7,59,586.2,52.4z
			 M556.8,54.5c0-0.1,0.1-0.2,0.1-0.2l0.3-0.7c0.8-1.9,1.6-3.5,2.4-4.9c2,0.6,4.9,1.1,8.7,1.1c3.9,0,6.7-0.5,8.7-1.1
			c0.8,1.4,1.6,3,2.4,4.9l0.3,0.8c0,0.1,0.1,0.1,0.1,0.2c2.4,6.1,4.8,16.1,4.8,22.4v0.9c0,4.8-0.6,11.4-1.8,15.5l-0.4,1.1
			c-3,0.7-7.4,1.2-14.1,1.2c-6.7,0-11.2-0.6-14.2-1.2l-0.3-0.9c-1.3-4.2-1.8-10.8-1.9-15.6v-0.8C552,70.6,554.4,60.6,556.8,54.5z"/>
	</g>
</g>
</svg>
